<svg xmlns="http://www.w3.org/2000/svg" viewBox="-0.5 -0.5 16 16" fill="none" stroke="currentColor" stroke-linecap="round" stroke-linejoin="round" id="Biceps-Flexed--Streamline-Lucide.svg" height="16" width="16"><desc>Biceps Flexed Streamline Icon: https://streamlinehq.com</desc><path d="M7.755625 8.135625A3.125 3.125 0 0 1 13.75 9.375c0 2.4162500000000002 -2.5 4.375 -5.625 4.375 -2.5481249999999998 0 -5.095625 -0.5125 -6.4818750000000005 -1.53875 -0.26625 -0.1975 -0.39437500000000003 -0.52 -0.3875 -0.8512500000000001C1.32375 7.951875 1.6418749999999998 1.25 6.25 1.25a1.875 1.875 0 0 1 1.875 1.875 1.25 1.25 0 0 1 -1.25 1.25c-0.690625 0 -1.025 -0.2775 -1.25 -0.625" stroke-width="1"></path><path d="M9.375 8.75a3.125 3.125 0 0 0 -4.74 1.25" stroke-width="1"></path><path d="M6.2275 4.265625C5.011875 4.985625000000001 5.9375 8.125 5 9.375" stroke-width="1"></path></svg>