<svg xmlns="http://www.w3.org/2000/svg" viewBox="-1.5 -1.5 48 48" fill="none" stroke="#000000" stroke-linecap="round" stroke-linejoin="round" id="Dumbbell--Streamline-Lucide.svg" height="48" width="48"><desc>Dumbbell Streamline Icon: https://streamlinehq.com</desc><path d="M27 27 18 18" stroke-width="3"></path><path d="M34.981875 40.284375a3.75 3.75 0 1 1 -5.304375 -5.302499999999999l-3.313125 3.315a3.75 3.75 0 1 1 -5.304375 -5.304375l11.9325 -11.9325a3.75 3.75 0 1 1 5.304375 5.304375l-3.315 3.313125a3.75 3.75 0 1 1 5.302499999999999 5.304375z" stroke-width="3"></path><path d="m40.3125 40.3125 -2.625 -2.625" stroke-width="3"></path><path d="M7.3125 7.3125 4.6875 4.6875" stroke-width="3"></path><path d="M12.0075 23.94a3.75 3.75 0 1 1 -5.304375 -5.304375l3.315 -3.313125a3.75 3.75 0 1 1 -5.302499999999999 -5.304375l5.302499999999999 -5.302499999999999a3.75 3.75 0 1 1 5.304375 5.302499999999999l3.313125 -3.315a3.75 3.75 0 1 1 5.304375 5.304375z" stroke-width="3"></path></svg>