<svg xmlns="http://www.w3.org/2000/svg" viewBox="0 0 48 48" id="Mic-Line--Streamline-Mingcute.svg" height="48" width="48"><desc>Mic Line Streamline Icon: https://streamlinehq.com</desc><g fill="none" fill-rule="evenodd"><path d="M48 0v48H0V0h48ZM25.186 46.516l-0.022 0.004 -0.142 0.07 -0.04 0.008 -0.028 -0.008 -0.142 -0.07c-0.02 -0.008 -0.038 -0.002 -0.048 0.01l-0.008 0.02 -0.034 0.856 0.01 0.04 0.02 0.026 0.208 0.148 0.03 0.008 0.024 -0.008 0.208 -0.148 0.024 -0.032 0.008 -0.034 -0.034 -0.854c-0.004 -0.02 -0.018 -0.034 -0.034 -0.036Zm0.53 -0.226 -0.026 0.004 -0.37 0.186 -0.02 0.02 -0.006 0.022 0.036 0.86 0.01 0.024 0.016 0.014 0.402 0.186c0.024 0.008 0.046 0 0.058 -0.016l0.008 -0.028 -0.068 -1.228c-0.006 -0.024 -0.02 -0.04 -0.04 -0.044Zm-1.43 0.004a0.046 0.046 0 0 0 -0.054 0.012l-0.012 0.028 -0.068 1.228c0 0.024 0.014 0.04 0.034 0.048l0.03 -0.004 0.402 -0.186 0.02 -0.016 0.008 -0.022 0.034 -0.86 -0.006 -0.024 -0.02 -0.02 -0.368 -0.184Z" stroke-width="1"></path><path fill="#000000" d="M38.14 24.02a2 2 0 0 1 1.7 2.264A16.008 16.008 0 0 1 26 39.876V42a2 2 0 1 1 -4 0v-2.124a16.01 16.01 0 0 1 -13.838 -13.592 2 2 0 0 1 3.96 -0.568 12.004 12.004 0 0 0 23.756 0 2 2 0 0 1 2.264 -1.696ZM24 4a10 10 0 0 1 10 10v10a10 10 0 0 1 -20 0V14a10 10 0 0 1 10 -10Zm0 4a6 6 0 0 0 -6 6v10a6 6 0 1 0 12 0V14a6 6 0 0 0 -6 -6Z" stroke-width="1"></path></g></svg>