<svg xmlns="http://www.w3.org/2000/svg" viewBox="-0.5 -0.5 16 16" fill="none" stroke="#000000" stroke-linecap="round" stroke-linejoin="round" id="User-Circle--Streamline-Tabler.svg" height="16" width="16"><desc>User Circle Streamline Icon: https://streamlinehq.com</desc><path d="M0.885 7.5C0.885 12.59225 6.397500000000001 15.774875 10.807500000000001 13.22875C12.8541875 12.047125000000001 14.115 9.8633125 14.115 7.5C14.115 2.40775 8.6025 -0.774875 4.1925 1.77125C2.1458125 2.9528749999999997 0.885 5.1366875 0.885 7.5" stroke-width="1"></path><path d="M5.295 6.029999999999999C5.295 7.7274375 7.1325 8.7883125 8.6025 7.9395625C9.28475 7.5456875 9.705 6.81775 9.705 6.029999999999999C9.705 4.3325625 7.8675 3.2716875 6.397500000000001 4.1204374999999995C5.715249999999999 4.5143125 5.295 5.24225 5.295 6.029999999999999" stroke-width="1"></path><path d="M3.2135000000000002 12.534C3.5870625 11.290750000000001 4.7318125 10.439625 6.029999999999999 10.440000000000001H8.97C10.2699375 10.4395625 11.415875 11.292875 11.788 12.538437499999999" stroke-width="1"></path></svg>