<svg xmlns="http://www.w3.org/2000/svg" viewBox="-0.5 -0.5 16 16" fill="none" stroke="#000000" stroke-linecap="round" stroke-linejoin="round" id="Timeline--Streamline-Tabler.svg" height="16" width="16"><desc>Timeline Streamline Icon: https://streamlinehq.com</desc><path d="M1.62 10.440000000000001L6.029999999999999 5.295L9.705 8.97L13.38 4.5600000000000005" stroke-width="1"></path><path d="M8.97 8.97C8.97 9.5358125 9.5825 9.8894375 10.0725 9.6065C10.2999375 9.475249999999999 10.440000000000001 9.2325625 10.440000000000001 8.97C10.440000000000001 8.404187499999999 9.8275 8.0505625 9.3375 8.3335C9.1100625 8.46475 8.97 8.707437500000001 8.97 8.97" stroke-width="1"></path><path d="M5.295 5.295C5.295 5.8608125 5.9075 6.2144375 6.397500000000001 5.9315C6.6249375 5.80025 6.765 5.5575624999999995 6.765 5.295C6.765 4.7291875 6.1525 4.3755625 5.6625000000000005 4.6585C5.4350625 4.78975 5.295 5.0324375 5.295 5.295" stroke-width="1"></path><path d="M0.885 10.440000000000001C0.885 11.005812500000001 1.4975 11.3594375 1.9875 11.0765C2.2149375 10.94525 2.355 10.702562499999999 2.355 10.440000000000001C2.355 9.8741875 1.7425 9.5205625 1.2525 9.8035C1.0250625 9.93475 0.885 10.1774375 0.885 10.440000000000001" stroke-width="1"></path><path d="M12.645 4.5600000000000005C12.645 5.1258125 13.2575 5.4794374999999995 13.747499999999999 5.1964999999999995C13.9749375 5.06525 14.115 4.8225625 14.115 4.5600000000000005C14.115 3.9941875 13.5025 3.6405625 13.0125 3.9234999999999998C12.785062499999999 4.054749999999999 12.645 4.2974375 12.645 4.5600000000000005" stroke-width="1"></path></svg>